<?xml version="1.0" encoding="UTF-8"?>
<svg xmlns="http://www.w3.org/2000/svg" version="1.1" xmlns:xlink="http://www.w3.org/1999/xlink" viewBox="0 0 144 144">
  <!-- Generator: Adobe Illustrator 29.6.1, SVG Export Plug-In . SVG Version: 2.1.1 Build 9)  -->
  <defs>
    <style>
      .st0 {
        fill: url(#linear-gradient2);
      }

      .st1 {
        filter: url(#luminosity-invert2);
      }

      .st2 {
        mask: url(#mask-5);
      }

      .st3 {
        fill: #a08cf2;
      }

      .st4 {
        mask: url(#mask-1);
      }

      .st5 {
        fill: #fff;
      }

      .st6 {
        opacity: .8;
      }

      .st7 {
        mask: url(#mask);
      }

      .st8 {
        fill: url(#linear-gradient1);
      }

      .st9 {
        filter: url(#luminosity-invert1);
      }

      .st10 {
        fill: none;
      }

      .st11 {
        mask: url(#mask-2);
      }

      .st12 {
        opacity: .4;
      }

      .st13 {
        isolation: isolate;
      }

      .st14 {
        fill: #e5d6ff;
      }

      .st15 {
        fill: url(#linear-gradient4);
      }

      .st16 {
        filter: url(#luminosity-invert3);
      }

      .st17 {
        fill: url(#linear-gradient3);
      }

      .st18 {
        opacity: .8;
      }

      .st19 {
        filter: url(#luminosity-invert5);
      }

      .st20 {
        fill: #a98ff7;
      }

      .st21 {
        mix-blend-mode: screen;
        opacity: .8;
      }

      .st22 {
        mask: url(#mask-4);
      }

      .st23 {
        filter: url(#luminosity-invert4);
      }

      .st24 {
        filter: url(#luminosity-invert);
      }

      .st25 {
        fill: url(#linear-gradient);
      }

      .st26 {
        fill: #9c77f7;
      }

      .st27 {
        mask: url(#mask-3);
      }
    </style>
    <linearGradient id="linear-gradient" x1="41" y1="72.7" x2="41.3" y2="72.7" gradientUnits="userSpaceOnUse">
      <stop offset="0" stop-color="#9c77f7" stop-opacity="0"/>
      <stop offset="0" stop-color="#9c77f7" stop-opacity=".2"/>
      <stop offset="0" stop-color="#9c77f7" stop-opacity=".4"/>
      <stop offset="0" stop-color="#9c77f7" stop-opacity=".5"/>
      <stop offset=".1" stop-color="#9c77f7" stop-opacity=".6"/>
      <stop offset=".1" stop-color="#9c77f7" stop-opacity=".8"/>
      <stop offset=".2" stop-color="#9c77f7" stop-opacity=".8"/>
      <stop offset=".2" stop-color="#9c77f7" stop-opacity=".9"/>
      <stop offset=".3" stop-color="#9c77f7" stop-opacity="1"/>
      <stop offset=".3" stop-color="#9c77f7" stop-opacity="1"/>
      <stop offset=".5" stop-color="#9c77f7"/>
      <stop offset=".6" stop-color="#9c78f7" stop-opacity="1"/>
      <stop offset=".7" stop-color="#a07cf7" stop-opacity="1"/>
      <stop offset=".7" stop-color="#a584f7" stop-opacity=".9"/>
      <stop offset=".8" stop-color="#ae8ff8" stop-opacity=".8"/>
      <stop offset=".8" stop-color="#b89ef9" stop-opacity=".7"/>
      <stop offset=".9" stop-color="#c5affa" stop-opacity=".6"/>
      <stop offset=".9" stop-color="#d4c4fb" stop-opacity=".4"/>
      <stop offset="1" stop-color="#e6dcfc" stop-opacity=".3"/>
      <stop offset="1" stop-color="#f9f7fe" stop-opacity="0"/>
      <stop offset="1" stop-color="#fff" stop-opacity="0"/>
    </linearGradient>
    <linearGradient id="linear-gradient1" x1="102.8" y1="72.5" x2="103.1" y2="72.5" xlink:href="#linear-gradient"/>
    <linearGradient id="linear-gradient2" x1="8.1" y1="72.5" x2="133.2" y2="72.5" xlink:href="#linear-gradient"/>
    <linearGradient id="linear-gradient3" x1="8.1" y1="102.7" x2="133.2" y2="102.7" xlink:href="#linear-gradient"/>
    <linearGradient id="linear-gradient4" x1="8.1" y1="41.3" x2="133.2" y2="41.3" xlink:href="#linear-gradient"/>
    <filter id="luminosity-invert" x="93.1" y="31.2" width="19.9" height="19.9" color-interpolation-filters="sRGB" filterUnits="userSpaceOnUse">
      <feColorMatrix result="cm" values="-1 0 0 0 1 0 -1 0 0 1 0 0 -1 0 1 0 0 0 1 0"/>
    </filter>
    <mask id="mask" x="93.1" y="31.2" width="19.9" height="19.9" maskUnits="userSpaceOnUse">
      <g class="st24">
        <image width="83" height="83" transform="translate(93.1 31.2) scale(.2)" xlink:href="Programing-01-1.png"/>
      </g>
    </mask>
    <filter id="luminosity-invert1" x="63.4" y="19.9" width="14.6" height="14.9" color-interpolation-filters="sRGB" filterUnits="userSpaceOnUse">
      <feColorMatrix result="cm" values="-1 0 0 0 1 0 -1 0 0 1 0 0 -1 0 1 0 0 0 1 0"/>
    </filter>
    <mask id="mask-1" x="63.4" y="19.9" width="14.6" height="14.9" maskUnits="userSpaceOnUse">
      <g class="st9">
        <image width="61" height="62" transform="translate(63.4 19.9) scale(.2)" xlink:href="Programing-01-2.png"/>
      </g>
    </mask>
    <filter id="luminosity-invert2" x="45.8" y="46.6" width="18.7" height="18.7" color-interpolation-filters="sRGB" filterUnits="userSpaceOnUse">
      <feColorMatrix result="cm" values="-1 0 0 0 1 0 -1 0 0 1 0 0 -1 0 1 0 0 0 1 0"/>
    </filter>
    <mask id="mask-2" x="45.8" y="46.6" width="18.7" height="18.7" maskUnits="userSpaceOnUse">
      <g class="st1">
        <image width="78" height="78" transform="translate(45.8 46.6) scale(.2)" xlink:href="Programing-01-3.png"/>
      </g>
    </mask>
    <filter id="luminosity-invert3" x="91.7" y="61" width="21.6" height="21.6" color-interpolation-filters="sRGB" filterUnits="userSpaceOnUse">
      <feColorMatrix result="cm" values="-1 0 0 0 1 0 -1 0 0 1 0 0 -1 0 1 0 0 0 1 0"/>
    </filter>
    <mask id="mask-3" x="91.7" y="61" width="21.6" height="21.6" maskUnits="userSpaceOnUse">
      <g class="st16">
        <image width="90" height="90" transform="translate(91.7 61) scale(.2)" xlink:href="Programing-01-4.png"/>
      </g>
    </mask>
    <filter id="luminosity-invert4" x="34.3" y="34.3" width="12.7" height="12.7" color-interpolation-filters="sRGB" filterUnits="userSpaceOnUse">
      <feColorMatrix result="cm" values="-1 0 0 0 1 0 -1 0 0 1 0 0 -1 0 1 0 0 0 1 0"/>
    </filter>
    <mask id="mask-4" x="34.3" y="34.3" width="12.7" height="12.7" maskUnits="userSpaceOnUse">
      <g class="st23">
        <image width="53" height="53" transform="translate(34.3 34.3) scale(.2)" xlink:href="Programing-01-5.png"/>
      </g>
    </mask>
    <filter id="luminosity-invert5" x="29.8" y="92.2" width="22.1" height="21.8" color-interpolation-filters="sRGB" filterUnits="userSpaceOnUse">
      <feColorMatrix result="cm" values="-1 0 0 0 1 0 -1 0 0 1 0 0 -1 0 1 0 0 0 1 0"/>
    </filter>
    <mask id="mask-5" x="29.8" y="92.2" width="22.1" height="21.8" maskUnits="userSpaceOnUse">
      <g class="st19">
        <image width="92" height="91" transform="translate(29.8 92.2) scale(.2)" xlink:href="Programing-01-6.png"/>
      </g>
    </mask>
  </defs>
  <g class="st13">
    <g id="Layer_1">
      <g class="st12">
        <path class="st26" d="M128.7,72c.3,22.5-14.1,44.1-35,52.6-37.3,15.5-78.6-12.3-78.6-52.6C15,31.5,56.5,3.9,93.8,19.4c20.9,8.5,35.2,30.1,34.9,52.6h0ZM128.7,72c.2-22.4-14.2-43.9-35.1-52.2C56.5,4.5,15.6,31.9,15.4,72c-.3,22.4,14.1,44,34.9,52.3,36.9,15.3,78.4-12.2,78.3-52.3h0Z"/>
      </g>
      <path class="st26" d="M72,107.9c-19.8,0-35.9-16.1-35.9-35.9s16.1-35.9,35.9-35.9,35.9,16.1,35.9,35.9-16.1,35.9-35.9,35.9ZM72,36.3c-19.7,0-35.7,16-35.7,35.7s16,35.7,35.7,35.7,35.7-16,35.7-35.7-16-35.7-35.7-35.7Z"/>
      <path class="st26" d="M72,102.9c-17,0-30.9-13.9-30.9-30.9s13.9-30.9,30.9-30.9,30.9,13.9,30.9,30.9-13.9,30.9-30.9,30.9ZM72,41.4c-16.9,0-30.6,13.7-30.6,30.6s13.7,30.6,30.6,30.6,30.6-13.7,30.6-30.6-13.7-30.6-30.6-30.6Z"/>
      <g class="st6">
        <path class="st26" d="M115.8,72c.2,17.4-10.9,34.1-27,40.7-28.8,12-60.7-9.5-60.8-40.7-.1-31.3,31.9-52.7,60.8-40.7,16.1,6.6,27.2,23.3,27,40.7h0ZM115.8,72c0-30.9-32-52.2-60.5-40.3-35.8,15.1-36,65.6,0,80.7,28.5,11.8,60.5-9.4,60.5-40.4h0Z"/>
      </g>
      <path class="st26" d="M70.6,9.9c.2,40.1.2,85.1,0,125.2-.2-40.1-.2-85.1,0-125.2h0Z"/>
      <path class="st25" d="M41.1,10.1c.2,40.1.2,85.1,0,125.2-.2-40.1-.2-85.1,0-125.2h0Z"/>
      <path class="st8" d="M102.9,9.9c.2,40.1.2,85.1,0,125.2-.2-40.1-.2-85.1,0-125.2h0Z"/>
      <path class="st26" d="M114.9,28.3c-28.2,28.5-60,60.3-88.5,88.5,28.2-28.5,60-60.3,88.5-88.5h0Z"/>
      <path class="st26" d="M113.4,118.2c-27.5-29.1-58.3-62-85.5-91.4,27.5,29.1,58.3,62,85.5,91.4h0Z"/>
      <path class="st0" d="M8.1,72.5c40.1-.2,85.1-.2,125.2,0-40.1.2-85.1.2-125.2,0h0Z"/>
      <path class="st17" d="M8.1,102.7c40.1-.2,85.1-.2,125.2,0-40.1.2-85.1.2-125.2,0h0Z"/>
      <path class="st15" d="M8.1,41.3c40.1-.2,85.1-.2,125.2,0-40.1.2-85.1.2-125.2,0h0Z"/>
      <g>
        <g>
          <g class="st18">
            <rect class="st14" x="95.3" y="33.4" width="15.6" height="15.6" rx="2.6" ry="2.6"/>
            <g class="st7">
              <g class="st21">
                <rect class="st5" x="95.3" y="33.4" width="15.6" height="15.6" rx="2.6" ry="2.6"/>
              </g>
            </g>
          </g>
          <g>
            <path class="st26" d="M101.4,40.8h3.5c.8-.1,1.4-.7,1.5-1.5.1-1,0-2.2,0-3.3,0-1-.9-1.5-1.8-1.7-.9-.1-1.8-.1-2.7,0-.8,0-1.8.2-2,1.2,0,.1,0,.3,0,.4,0,.4,0,.9,0,1.4,0,0,0,0,0,0h3.2v.4h-4.7c-1,.2-1.6.8-1.8,1.8-.2.7-.2,1.5-.1,2.2.2,1.1.4,2.4,1.7,2.6h1.3v-1.7c.2-1,.9-1.7,1.9-1.8ZM101.4,36.5c-.3,0-.6-.2-.6-.5,0-.3.1-.6.4-.7.3,0,.5,0,.6.2.3.4,0,.9-.4.9Z"/>
            <path class="st26" d="M109.7,40.1c-.1-.9-.4-2.2-1.5-2.3,0,0,0,0,0,0h-1.5v1.6s0,.2,0,.2c-.1.8-.9,1.5-1.7,1.7-1.3,0-2.5,0-3.8,0-.6,0-1.1.6-1.3,1.1,0,.2,0,.4,0,.6,0,1,0,2,0,3,0,.3,0,.4.1.6.6,1.1,2.6,1.3,3.6,1.2.7,0,1.8-.4,2.3-.9,0-.1.3-.5.3-.7v-1.5h-3.2v-.4h5s.2,0,.2,0c.6-.1.9-.7,1.1-1.3.4-1,.4-1.9.3-2.9ZM104.4,45.8c0-.1.2-.3.4-.3.2,0,.5,0,.6.2.1.2.1.5,0,.7,0,.1-.1.2-.3.2-.1,0-.3,0-.4,0,0,0-.2,0-.2-.1,0,0-.1-.1-.1-.2,0-.1,0-.4,0-.6Z"/>
          </g>
        </g>
        <g>
          <g class="st18">
            <rect class="st14" x="65.4" y="22.1" width="10.5" height="10.5" rx="2.6" ry="2.6"/>
            <g class="st4">
              <g class="st21">
                <rect class="st5" x="65.4" y="22.1" width="10.5" height="10.5" rx="2.6" ry="2.6"/>
              </g>
            </g>
          </g>
          <g>
            <rect class="st26" x="72.7" y="22.7" width="1" height="6.9"/>
            <path class="st26" d="M69,25v6.8c-.2.3-.7.1-1,.2v-6.9h1Z"/>
            <rect class="st26" x="69.6" y="23.2" width="1" height="2.2"/>
            <rect class="st26" x="71.1" y="25" width="1" height="2.1"/>
            <rect class="st26" x="69.6" y="27.5" width="1" height="2.1"/>
            <rect class="st26" x="71.1" y="29.2" width="1" height="2.1"/>
            <rect class="st26" x="69.6" y="25.9" width="1" height="1"/>
            <rect class="st26" x="71.1" y="27.6" width="1" height="1"/>
          </g>
        </g>
        <g>
          <g class="st18">
            <rect class="st14" x="47.9" y="48.8" width="14.5" height="14.5" rx="2.6" ry="2.6"/>
            <g class="st11">
              <g class="st21">
                <rect class="st5" x="47.9" y="48.8" width="14.5" height="14.5" rx="2.6" ry="2.6"/>
              </g>
            </g>
          </g>
          <path class="st26" d="M54.2,52l-2.3-1.1-2.5,1.2,2.3,1.2,2.4-1.3ZM55.2,52.5l2.4,1.2-2.5,1.2-2.3-1.2,2.4-1.3ZM58.4,50.8l2.4,1.2-2.2,1.1-2.4-1.2,2.1-1.1ZM57.3,50.3l-2.2-1.1-2.2,1.1,2.3,1.1,2.1-1.1ZM55.6,59.8v3l2.7-1.3v-3s-2.7,1.3-2.7,1.3ZM58.3,57.4v-3s-2.7,1.3-2.7,1.3v3l2.7-1.3ZM61.5,56.9v3l-2.3,1.1v-3s2.3-1.2,2.3-1.2ZM61.5,55.8v-3l-2.3,1.1v3l2.3-1.2ZM54.7,55.8l-1.8-.9v3.9l-2.4-5.1c0,0-.1-.1-.2-.1l-1.6-.8v6.9l1.6.9v-3.6l2.2,4.2s.2.5.5.6c.3.2,1.6,1,1.6,1v-7Z"/>
        </g>
        <g>
          <g class="st18">
            <rect class="st14" x="93.9" y="63.1" width="17.4" height="17.4" rx="2.6" ry="2.6"/>
            <g class="st27">
              <g class="st21">
                <rect class="st5" x="93.9" y="63.1" width="17.4" height="17.4" rx="2.6" ry="2.6"/>
              </g>
            </g>
          </g>
          <g>
            <path class="st26" d="M102.8,64.9v1.8l-2.9,3c-2,2.4-.6,6,2.5,6.4,1.8.2,3.6-.9,4.2-2.7s0-2.9-1-3.9l.9-.9c0,0,.1,0,.1.1,2,2.2,1.8,5.5-.3,7.4s-5.9,1.6-7.7-.9-1.3-4.7.4-6.5l3.8-3.8Z"/>
            <path class="st26" d="M104.6,67h0c.5,0,.8.5.6.9s-.7.6-1,.3c-.5-.4-.3-1.2.4-1.2Z"/>
          </g>
        </g>
        <g>
          <g class="st18">
            <rect class="st14" x="36.4" y="36.5" width="8.5" height="8.5" rx="2.6" ry="2.6"/>
            <g class="st22">
              <g class="st21">
                <rect class="st5" x="36.4" y="36.5" width="8.5" height="8.5" rx="2.6" ry="2.6"/>
              </g>
            </g>
          </g>
          <g>
            <polygon class="st26" points="41.1 38.1 41.1 39.3 43.2 40.5 43.1 39.2 41.1 38.1"/>
            <polygon class="st20" points="43.1 39.2 43.2 40.5 44.2 39.8 44.1 38.8 43.1 39.2"/>
            <g>
              <polygon class="st20" points="37 39.3 41.1 37 44.2 38.8 43.1 39.3 41.1 38.1 38.1 39.9 37 39.3"/>
              <polygon class="st10" points="41.1 40.4 40.1 41 41.2 41.6 42.1 41 41.1 40.4"/>
              <polygon class="st3" points="40.1 44.5 41.2 43.9 41.1 42.7 42.1 42.2 42.1 41 41.1 40.4 41.1 38.1 38.1 39.9 38.1 41 40.2 39.8 40.2 41 41.2 41.6 41.1 42.6 41 42.7 40.1 42.2 40.1 44.5"/>
              <path class="st26" d="M38.1,40.9v-1.1s-1.1-.6-1.1-.6v1.1s1.1.6,1.1.6l2.1-1.2s0,1.2,0,1.2,1,.6,1,.6v1.2c-.1,0-1.1-.5-1.1-.5v2.4l-1-.6v-3.6s-1,.6-1,.6Z"/>
            </g>
          </g>
        </g>
        <g>
          <g class="st18">
            <rect class="st14" x="31.9" y="94.2" width="17.7" height="17.7" rx="2.6" ry="2.6"/>
            <g class="st2">
              <g class="st21">
                <rect class="st5" x="31.9" y="94.2" width="17.7" height="17.7" rx="2.6" ry="2.6"/>
              </g>
            </g>
          </g>
          <g>
            <path class="st26" d="M45.4,98.8h0c.1,0,.3.2.4.3.4.4.7.8.8,1.4s0,0,0,0c0,0,0,0,0,0,.4,0,.8,0,1.2,0s.6.2.8.3,0,0,0,0c0,0,.1,0,0,.1,0,.1,0,.2-.1.3,0,.2-.3.4-.4.5s0,0,0,0,0,0,0,0c-.2.2-.6.4-.8.4s-.5.1-.7.1-.3,0-.4,0c0,.1,0,.2-.1.4-.3.8-.7,1.5-1.2,2.1s-.2.3-.4.5c-1.7,1.9-4.3,2.6-6.8,2.6s-2.8-.3-3.7-1.2-.2-.2-.2-.3c-.9-1.1-1.3-2.5-1.3-3.9s0-.8.6-.9h10.9c.2,0,.5,0,.8-.2s.2,0,.2,0c0,0,0-.1,0-.2-.4-.8-.3-1.7.2-2.5s.2-.3.2-.3h.2Z"/>
            <path class="st26" d="M35.8,101.7s0,0,0-.1c0-.3,0-.9,0-1.2s0,0,0-.2c0,0,0,0,.1,0,.5,0,1,0,1.5,0h0c0,0,0,1.5,0,1.5h0s-1.5,0-1.5,0h-.1Z"/>
            <path class="st26" d="M39.5,100.2c0,0,0,0,0,.2,0,.3,0,.9,0,1.2s0,0,0,.1c0,0,0,0-.1,0-.5,0-1,0-1.5,0h0c0,0,0-1.4,0-1.4h0c0,0,.1,0,.1,0,.5,0,1,0,1.4,0s0,0,.1,0Z"/>
            <polygon class="st26" points="41.9 100.2 43.5 100.2 43.5 100.3 43.5 101.6 43.4 101.7 41.9 101.7 41.8 101.7 41.8 100.3 41.9 100.2"/>
            <path class="st26" d="M37.5,99.9s0,0-.1,0c-.4,0-.9,0-1.4,0,0,0-.2,0-.2-.1,0-.4,0-.9,0-1.3s0,0,0-.1h.1s1.5,0,1.5,0h0c0,.5,0,1,0,1.4s0,0,0,.1Z"/>
            <path class="st26" d="M39.5,98.4s0,0,0,.1c0,.4,0,.9,0,1.3,0,0,0,.1-.2.1-.4,0-.9,0-1.4,0s0,0-.1,0c0,0,0,0,0-.1,0-.4,0-.9,0-1.3h0c0,0,1.5,0,1.5,0h.1Z"/>
            <path class="st26" d="M35.5,101.7h-.1s-1.5,0-1.5,0c0,0,0,0,0-.1,0-.3,0-.9,0-1.2s0,0,0-.2c0,0,0,0,.1,0,.5,0,1,0,1.4,0h0s0,.2,0,.2c0,.4,0,.8,0,1.2s0,0,0,.1Z"/>
            <path class="st26" d="M39.8,98.4h.1s1.5,0,1.5,0h0c0,.5,0,1,0,1.4s0,0,0,.1c0,0,0,0,0,0-.4,0-1,0-1.4,0h-.1v-1.5Z"/>
            <path class="st26" d="M41.5,100.2s0,0,0,.1c0,.4,0,.9,0,1.3h0c0,0-1.6,0-1.6,0h0v-1.5h0s1.5,0,1.5,0h.1Z"/>
            <path class="st26" d="M39.9,96.5h1.6s0,0,0,0v1.3c0,0,0,.1-.2.1-.4,0-.9,0-1.4,0s-.1,0-.2,0v-1.4h0Z"/>
          </g>
        </g>
      </g>
    </g>
  </g>
</svg>